<svg xmlns="http://www.w3.org/2000/svg" viewBox="0 0 691.15 334.97"><defs><style>.a{fill:#e00;}</style></defs><title>Logo-Red_Hat-OpenShift_Dedicated-A-Red-RGB</title><path class="a" d="M238.94,225.18c21.22,0,38-16.54,38-37.54s-16.75-37.55-38-37.55-37.85,16.54-37.85,37.55S217.73,225.18,238.94,225.18Zm0-65c15.19,0,26.84,11.85,26.84,27.46s-11.65,27.45-26.84,27.45-26.72-12-26.72-27.45S223.86,160.18,238.94,160.18Z"/><path class="a" d="M313.72,170.27a25,25,0,0,0-16.23,5.82v-5H287.2v74.47h10.4v-25.9a26.18,26.18,0,0,0,15.81,5.2c15.39,0,27-12.07,27-27.35S328.8,170.27,313.72,170.27Zm-1.46,45.55a19.67,19.67,0,0,1-14.66-6.14V185.55c3.43-4,8.53-6.24,14.66-6.24,10.09,0,18,7.81,18,18.31C330.26,207.92,322.56,215.82,312.26,215.82Z"/><path class="a" d="M376.12,216.13A17.85,17.85,0,0,1,358.23,201H400v-3c0-15.6-11-27.66-25.59-27.66-15,0-26.52,12.06-26.52,27.25C347.93,213,360.1,225,375.7,225a31.19,31.19,0,0,0,20.49-7l-6.66-6.55A20.57,20.57,0,0,1,376.12,216.13ZM374.25,179c7.69,0,14,6,15.49,14.15H358.33C359.89,184.83,366.13,179,374.25,179Z"/><path class="a" d="M420.21,186a14.91,14.91,0,0,1,13-6.86c8.22,0,13.21,5.2,13.21,13.41V224h10.3V190.76c0-12.17-8.43-20.7-20.6-20.7a21.64,21.64,0,0,0-15.91,6.34v-5.3h-10.4V224h10.4Z"/><path class="a" d="M501.44,182.54l-11.76-1.87c-9.36-1.56-13-4.48-13-10.3,0-6.45,6.35-10.82,15.81-10.82,8,0,15.91,2.92,23.82,8.95l6-8.32A49.26,49.26,0,0,0,493,150.3c-16.33,0-26.83,8.32-26.83,20.9,0,10.3,6.34,16.64,19.86,18.93l12.17,2C509,193.88,513,197.2,513,203.55c0,7.17-7.07,12.17-17.68,12.17-9.26,0-17.27-3.75-25.07-11.44L463.58,212a43.83,43.83,0,0,0,31.2,13.11c17.37,0,29-9.05,29-22.36C523.8,191.48,516.93,185,501.44,182.54Z"/><path class="a" d="M569.14,192.52V224h10.3V190.76c0-12.17-8.43-20.7-20.6-20.7a21.62,21.62,0,0,0-15.91,6.34V149l-10.4,2.28V224h10.4V186a14.91,14.91,0,0,1,13-6.86C564.15,179.11,569.14,184.31,569.14,192.52Z"/><rect class="a" x="591.5" y="171.1" width="10.4" height="52.94"/><path class="a" d="M596.7,162.57a6.45,6.45,0,0,0,0-12.9,6.45,6.45,0,0,0,0,12.9Z"/><path class="a" d="M622,224h10.29V179.83h15.19V171.1H632.26v-7.8c0-5.72,2.81-8.22,8.64-8.22a20,20,0,0,1,6.55.94V147A29.16,29.16,0,0,0,640,146c-11.86,0-18,6.35-18,17.06v8H609.69v8.73H622Z"/><path class="a" d="M689.15,179.83V171.1h-15.6v-16l-10.3,2.5V171.1H652v8.73h11.23v31.1c0,9.15,5.52,14,15.81,14a35.44,35.44,0,0,0,9.88-1.56v-8.73a20.18,20.18,0,0,1-7.59,1.24c-5.62,0-7.8-2-7.8-7.38V179.83Z"/><path class="a" d="M228.86,259.23h-24V332h24c22.67,0,38.27-15.71,38.27-36.4S251.43,259.23,228.86,259.23Zm.41,65.53H212.84V266.51h16.43c16.85,0,29.75,12.59,29.75,29.13S246.12,324.76,229.27,324.76Z"/><path class="a" d="M301.55,279.1c-14.56,0-25.69,12.06-25.69,26.83a26.55,26.55,0,0,0,26.83,27,30.57,30.57,0,0,0,19.45-6.45l-4.78-5.09c-3.54,3-8.94,4.78-14.35,4.78-10.3,0-18.41-7.59-19.56-17.89H326.2v-2.39C326.2,291.06,315.38,279.1,301.55,279.1Zm-17.89,23.09c1.46-9.36,8.43-16.33,17.68-16.33,8.64,0,15.81,7.07,17.16,16.33Z"/><path class="a" d="M377.57,285a26.4,26.4,0,0,0-16.64-5.93c-15,0-26.31,11.85-26.31,26.83s11.34,26.94,26.21,26.94a24.4,24.4,0,0,0,16.85-6.35V332h7.59V257.47l-7.7,1.76Zm0,33.8c-3.53,4.47-9.15,7.28-16,7.28-10.82,0-19.35-8.74-19.35-20.28,0-11.34,8.32-20,19.35-20a20.31,20.31,0,0,1,16,7.17Z"/><path class="a" d="M402,259.55a5.15,5.15,0,0,0-5.2,5.2,5.2,5.2,0,0,0,10.4,0A5.15,5.15,0,0,0,402,259.55Z"/><rect class="a" x="398.16" y="279.93" width="7.7" height="52.11"/><path class="a" d="M443.09,286a21.63,21.63,0,0,1,15.39,6.76l4.89-5.61A29.86,29.86,0,0,0,443,278.89c-14.88,0-26.52,12-26.52,27s11.64,27,26.52,27a29.08,29.08,0,0,0,20.17-8.32l-4.78-5.2A21.28,21.28,0,0,1,443.19,326c-10.71,0-19.13-8.73-19.13-20.07C424.06,294.8,432.38,286,443.09,286Z"/><path class="a" d="M492.6,278.89c-6.87,0-13.11,1.87-20,5.2l2.91,5.93c5.93-3,11-4.58,16.33-4.58,9.05,0,13.83,4.16,13.83,12.59v6.86a33.74,33.74,0,0,0-15.29-3.53c-11.65,0-20.8,5.3-20.8,15.91,0,9.36,7.91,15.7,19.24,15.7a25.15,25.15,0,0,0,16.85-6V332h7.49V297C513.19,285.23,505.7,278.89,492.6,278.89Zm13.1,42a21.26,21.26,0,0,1-15.5,6c-7.59,0-13.2-3.85-13.2-9.88,0-6.24,5.61-10.09,13.62-10.09,6.14,0,10.92,1.35,15.08,4.06Z"/><path class="a" d="M538.15,264.75l-7.59,2v13.21H519.32v6.55h11.24v33.91c0,8.11,4.88,12.58,14,12.58a30.37,30.37,0,0,0,9.15-1.35v-6.76a19.32,19.32,0,0,1-7.59,1.35c-5.72,0-8-2.18-8-7.8V286.48h15.7v-6.55h-15.7Z"/><path class="a" d="M583.7,279.1c-14.56,0-25.69,12.06-25.69,26.83a26.55,26.55,0,0,0,26.83,27,30.59,30.59,0,0,0,19.45-6.45l-4.78-5.09c-3.54,3-9,4.78-14.35,4.78-10.3,0-18.41-7.59-19.56-17.89h42.75v-2.39C608.35,291.06,597.53,279.1,583.7,279.1Zm-17.89,23.09c1.46-9.36,8.43-16.33,17.68-16.33,8.63,0,15.81,7.07,17.16,16.33Z"/><path class="a" d="M659.72,285a26.4,26.4,0,0,0-16.64-5.93c-15,0-26.31,11.85-26.31,26.83s11.34,26.94,26.21,26.94a24.4,24.4,0,0,0,16.85-6.35V332h7.59V257.47l-7.7,1.76Zm0,33.8c-3.53,4.47-9.15,7.28-16,7.28-10.82,0-19.35-8.74-19.35-20.28,0-11.34,8.32-20,19.35-20a20.31,20.31,0,0,1,16,7.17Z"/><path class="a" d="M556.79,98.8c0,11.89,7.16,17.67,20.2,17.67a52.58,52.58,0,0,0,11.88-1.68V101a24.8,24.8,0,0,1-7.68,1.16c-5.36,0-7.36-1.69-7.36-6.73V74.3H589.4V60.1H573.83v-18l-17,3.68V60.1H545.54V74.3h11.25Z"/><path class="a" d="M511.78,82.71c-14.3,0-22.92,6-22.92,16.72,0,9.78,7.78,17.25,20.19,17.25,6,0,10.83-1.26,15.35-4.31v3.36h16.83V80.08c0-13.56-9.15-21-24.4-21-8.52,0-16.93,2-26,6.1L497,77.66c6.52-2.73,12-4.41,16.82-4.41,7.05,0,10.62,2.73,10.62,8.3v2.74A49.42,49.42,0,0,0,511.78,82.71Zm11.42,19.35a21.45,21.45,0,0,1-10.62,2.63c-5.47,0-8.73-2.1-8.73-5.57,0-3.68,3.68-5.47,9.26-5.47a42.51,42.51,0,0,1,10.09,1.26Z"/><path class="a" d="M298.67,116.79c9.36,0,16.2-2.53,23.24-8.42l-11.25-10c-2.63,2.74-6.52,4.21-11.15,4.21a14.37,14.37,0,0,1-13.67-8.84h39.65v-4.2c0-17.67-11.89-30.4-28.08-30.4a28.58,28.58,0,0,0-29,28.82C268.38,104.17,281.63,116.79,298.67,116.79ZM297.09,73c5.37,0,9.89,3.47,11.68,8.83H285.52C287.21,76.3,291.41,73,297.09,73Z"/><path class="a" d="M221.16,88.92h13.78l13.88,26.81H269L252.82,86.29A22.28,22.28,0,0,0,266.7,65.57c0-13.25-10.41-23.45-26-23.45H203.07v73.61h18.09Zm0-31.34H239c6,0,9.36,3.78,9.36,8.3S245,74.19,239,74.19H221.16Z"/><polygon class="a" points="434.69 86.92 464.98 86.92 464.98 115.73 483.07 115.73 483.07 42.12 464.98 42.12 464.98 70.41 434.69 70.41 434.69 42.12 416.61 42.12 416.61 115.73 434.69 115.73 434.69 86.92"/><path class="a" d="M359.35,116.47a25.09,25.09,0,0,0,14.94-4.84v4.1h16.82V38.44l-17,3.68V63.05a28.24,28.24,0,0,0-14.19-3.69c-16.2,0-28.92,12.52-28.92,28.5A28.25,28.25,0,0,0,359.35,116.47Zm2.95-42.7a17.24,17.24,0,0,1,11.77,4.31V97.54A16.37,16.37,0,0,1,362.3,102c-8.21,0-14.62-6.1-14.62-14.1S354,73.77,362.3,73.77Z"/><path class="a" d="M167.91,40.87a78.59,78.59,0,0,0-5.13-9c-.45-.68-.9-1.36-1.37-2l-11.09,4A76.14,76.14,0,0,0,12.45,84.05L29.21,78,23.54,80c.07.89.16,1.77.27,2.65a79.54,79.54,0,0,0,1.84,10L51,83.43a51.12,51.12,0,0,1-.88-7.84c0-.8,0-1.62,0-2.43,0-.12,0-.25,0-.38,0-.82,0-1.64.12-2.46l-11.09,4a49.35,49.35,0,0,1,84.59-30.79l14.89-5.41-3.8,1.38c.64.66,1.25,1.34,1.85,2s1,1.15,1.43,1.74h0a50,50,0,0,1,4.54,6.77L119,58.69a49.74,49.74,0,0,1,6.19,27.86l24.85-9L137.7,82c-.06.88-.16,1.75-.27,2.63l-.09.62c-.1.74-.22,1.49-.37,2.23,0,.13-.05.27-.07.41a49.27,49.27,0,0,1-1.43,5.49,48.37,48.37,0,0,1-2.24,5.72,49.43,49.43,0,0,1-71.06,21.06h0a49.57,49.57,0,0,1-4.72-3.35l-.28-.24c-.61-.49-1.19-1-1.77-1.51l-.44-.39c-.66-.61-1.3-1.22-1.92-1.86l-12.57,4.58A49.83,49.83,0,0,1,27.31,92L2,101.26a77.19,77.19,0,0,0,11.9,25.79l12.56-4.57c.5.69,1,1.38,1.52,2,.11.15.24.3.35.46.43.54.85,1.08,1.29,1.61l.27.33c.49.59,1,1.16,1.48,1.73l.16.18c.54.61,1.09,1.21,1.64,1.8l.06.07h0a75.4,75.4,0,0,0,22.94,16.52,76.27,76.27,0,0,0,101.24-36.85,75.24,75.24,0,0,0,7.09-32.64v-.22q0-1.12-.06-2.25c0-.13,0-.26,0-.39,0-.85-.09-1.71-.16-2.56l-12.56,4.57a76.56,76.56,0,0,0-7.47-27.41Z"/></svg>